The Matrix Reloaded 2003 1080p BluRay DTS x264-HiDt

Genre: Action, Adventure, Sci-Fi, Thriller 


Rated R for sci-fi violence and some sexuality


The Matrix Reloaded (2003)

Storyline
6 months after the events depicted in The Matrix, Neo has proved to be a good omen for the free humans, as more and more humans are being freed from the matrix and brought to Zion, the one and only stronghold of the Resistance. Neo himself has discovered his superpowers including super speed, ability to see the codes of the things inside the matrix and a certain degree of pre-cognition. But a nasty piece of news hits the human resistance: 250,000 machine sentinels are digging to Zion and would reach them in 72 hours. As Zion prepares for the ultimate war, Neo, Morpheus and Trinity are advised by the Oracle to find the Keymaker who would help them reach the Source. Meanwhile Neo's recurrent dreams depicting Trinity's death have got him worried and as if it was not enough, Agent Smith has somehow escaped deletion, has become more powerful than before and has fixed Neo as his next target. Written by Soumitra   


Cast
Cast overview, first billed only: 
  Ray Anthony  ...  Power Station Guard  
  Christine Anu  ...  Kali  
  Andy Arness  ...  Police #2  
  Alima Ashton-Sheibu  ...  Link's Niece  
  Helmut Bakaitis  ...  The Architect  
  Steve Bastoni  ...  Soren  
  Don Battee  ...  Vector (as Don Batte)  
  Monica Bellucci  ...  Persephone  
  Daniel Bernhardt  ...  Agent Johnson  
  Valerie Berry  ...  Priestess  
  Ian Bliss  ...  Bane  
  Liliana Bogatko  ...  Old Woman at Zion  
  Michael Budd  ...  Zion Controller  
  Stoney Burke  ...  Bike Carrier Driver  
  Kelly Butler  ...  Ice  

[img]http://torrent-stats.info/6123/752a607b.png[/img]

General Information:

RUNTIME........: 02:18:15
SIZE...........: DVD9+DVD5
VIDEO CODEC....: x264 - 2pass (DXVA)
RESOLUTION.....: 1920x798 OAR
BITRATE........: 10.8 Mbps
FRAMERATE......: 23.976 fps
AUDIO1.........: English DTS 5.1 1536 kbps
AUDIO2,3.......: English AC3 2ch 192 Kbps - 2 commentary tracks
SUBTITLES......: eng, ger, fre, spa, bul, por, swe, gre, chi - ASS
SOURCE.........: The Matrix Reloaded 2003 1080p Blu-Ray VC1 TrueHD 5.1(tnx to sinner20b4)
RATING.........: 7.0/10   119,730 votes
IMDB link......: http://www.imdb.com/title/tt0234215/

Other:

ENCODER........: changebg
RELEASE DATE...: 20.11.2008

Format : Matroska 
File size : 12.3 GiB 
Duration : 2h 18mn 
Overall bit rate : 12.7 Mbps 
Encoded date : UTC 2008-11-19 23:59:32 
Writing application : mkvmerge v2.2.0 ('Turn It On Again') built on Mar 4 2008 12:58:26 
Writing library : libebml v0.7.7 + libmatroska v0.8.1 

Video 
ID : 1 
Format : AVC 
Format/Info : Advanced Video Codec 
Format profile : High@L4.1 
Format settings, CABAC : Yes 
Format settings, ReFrames : 4 frames 
Muxing mode : Container profile=Unknown@4.1 
Codec ID : V_MPEG4/ISO/AVC 
Duration : 2h 18mn 
Bit rate : 10.8 Mbps 
Width : 1 920 pixels 
Height : 798 pixels 
Display aspect ratio : 2.40:1 
Frame rate : 23.976 fps 
Color space : YUV 
Chroma subsampling : 4:2:0 
Bit depth : 8 bits 
Scan type : Progressive 
Bits/(Pixel*Frame) : 0.295 
Stream size : 10.2 GiB (83%) 
Writing library : x264 core 65 r1028M 83baa7f 
Encoding settings : cabac=1 / ref=4 / deblock=1:-3:-3 / analyse=0x3:0x113 / me=umh / subme=9 / psy_rd=1.0:0.0 / mixed_ref=1 / me_range=24 / chroma_me=1 / trellis=1 / 8x8dct=1 / cqm=0 / deadzone=21,11 / chroma_qp_offset=-4 / threads=8 / nr=0 / decimate=1 / mbaff=0 / bframes=3 / b_pyramid=1 / b_adapt=2 / b_bias=0 / direct=1 / wpredb=1 / keyint=250 / keyint_min=25 / scenecut=40(pre) / rc=2pass / bitrate=10843 / ratetol=1.0 / qcomp=0.60 / qpmin=10 / qpmax=51 / qpstep=4 / cplxblur=20.0 / qblur=0.5 / vbv_maxrate=50000 / vbv_bufsize=40000 / ip_ratio=1.40 / pb_ratio=1.30 / aq=1:0.80 / zones=182800,198890,q=2 
Language : English 

Audio #1 
ID : 2 
Format : DTS 
Format/Info : Digital Theater Systems 
Codec ID : A_DTS 
Duration : 2h 18mn 
Bit rate mode : Constant 
Bit rate : 1 510 Kbps 
Channel(s) : 6 channels 
Channel positions : Front: L C R, Side: L R, LFE 
Sampling rate : 48.0 KHz 
Bit depth : 24 bits 
Stream size : 1.46 GiB (12%) 

Audio #2 
ID : 3 
Format : AC-3 
Format/Info : Audio Coding 3 
Format profile : Dolby Digital 
Mode extension : CM (complete main) 
Codec ID : A_AC3 
Duration : 2h 18mn 
Bit rate mode : Constant 
Bit rate : 192 Kbps 
Channel(s) : 2 channels 
Channel positions : Front: L R 
Sampling rate : 48.0 KHz 
Bit depth : 16 bits 
Stream size : 190 MiB (2%) 

Audio #3 
ID : 4 
Format : AC-3 
Format/Info : Audio Coding 3 
Format profile : Dolby Digital 
Mode extension : CM (complete main) 
Codec ID : A_AC3 
Duration : 2h 18mn 
Bit rate mode : Constant 
Bit rate : 192 Kbps 
Channel(s) : 2 channels 
Channel positions : Front: L R 
Sampling rate : 48.0 KHz 
Bit depth : 16 bits 
Stream size : 190 MiB (2%) 

Text 
ID : 5 
Format : ASS 
Codec ID : S_TEXT/ASS 
Codec ID/Info : Advanced Sub Station Alpha 
Language : English German French  Spanish  
           Bulgarian Portuguese  Swedish 
           Chinese 

 
http://www.imagebam.com/image/205847121310783 
http://www.imagebam.com/image/82ebb4121310798 
http://www.imagebam.com/image/d7ef07121310804 
http://www.imagebam.com/image/e03999121310820 
http://www.imagebam.com/image/4fca3a121310852 
http://www.imagebam.com/image/6653d4121310898

